<svg width="35" height="31" viewBox="0 0 35 31" fill="none" xmlns="http://www.w3.org/2000/svg">
<g clip-path="url(#clip0_236_10)">
<rect width="35" height="31" fill="#2666D0"/>
<path d="M29.1667 5.16675H5.83341C4.22925 5.16675 2.93133 6.32925 2.93133 7.75008L2.91675 23.2501C2.91675 24.6709 4.22925 25.8334 5.83341 25.8334H29.1667C30.7709 25.8334 32.0834 24.6709 32.0834 23.2501V7.75008C32.0834 6.32925 30.7709 5.16675 29.1667 5.16675ZM28.5834 10.6563L18.273 16.3655C17.8063 16.6238 17.1938 16.6238 16.7272 16.3655L6.41675 10.6563C6.05216 10.4497 5.83341 10.1009 5.83341 9.72633C5.83341 8.86091 6.898 8.34424 7.72925 8.79633L17.5001 14.2084L27.2709 8.79633C28.1022 8.34424 29.1667 8.86091 29.1667 9.72633C29.1667 10.1009 28.948 10.4497 28.5834 10.6563Z" fill="white"/>
</g>
<defs>
<clipPath id="clip0_236_10">
<rect width="35" height="31" fill="white"/>
</clipPath>
</defs>
</svg>
