<svg width="67" height="65" viewBox="0 0 67 65" fill="none" xmlns="http://www.w3.org/2000/svg">
<ellipse cx="33.5" cy="32.5" rx="33.5" ry="32.5" fill="#2666D0" fill-opacity="0.22"/>
<path d="M52 21.6447V24.4132C52 26.8529 44.1615 28.8428 34.5 28.8428C24.8385 28.8428 17 26.8529 17 24.4132V21.6447C17 19.205 24.8385 17.2151 34.5 17.2151C44.1615 17.2151 52 19.205 52 21.6447ZM52 27.8738V34.1029C52 36.5426 44.1615 38.5324 34.5 38.5324C24.8385 38.5324 17 36.5426 17 34.1029V27.8738C20.7598 29.881 27.6412 30.8153 34.5 30.8153C41.3587 30.8153 48.2402 29.881 52 27.8738ZM52 37.5635V43.7925C52 46.2323 44.1615 48.2221 34.5 48.2221C24.8385 48.2221 17 46.2323 17 43.7925V37.5635C20.7598 39.5706 27.6412 40.505 34.5 40.505C41.3587 40.505 48.2402 39.5706 52 37.5635Z" fill="#2666D0"/>
</svg>
