<svg width="67" height="65" viewBox="0 0 67 65" fill="none" xmlns="http://www.w3.org/2000/svg">
<ellipse cx="33.5" cy="32.5" rx="33.5" ry="32.5" fill="#2666D0" fill-opacity="0.22"/>
<path d="M18.1875 46.2216H48.8129V42.3457H18.1875V46.2216ZM44.4378 30.718H39.8878C38.7762 30.718 37.8752 29.9198 37.8752 28.9351V28.3621C37.8752 26.7046 38.4823 25.1276 39.3423 23.6553C39.965 22.5888 40.2241 21.3304 39.9609 19.9962C39.4981 17.6477 37.3311 15.7145 34.6794 15.3058C30.5347 14.6668 26.9376 17.4751 26.9376 21.0282C26.9376 21.8857 27.1509 22.696 27.5317 23.4252C28.4429 25.1724 29.1251 27.0056 29.1251 28.9308V28.9351C29.1251 29.9198 28.2242 30.718 27.1126 30.718H22.5626C18.9381 30.718 16 33.3209 16 36.5318V38.4698C16 39.5399 16.9796 40.4078 18.1875 40.4078H48.8129C50.0208 40.4078 51.0004 39.5399 51.0004 38.4698V36.5318C51.0004 33.3209 48.0623 30.718 44.4378 30.718Z" fill="#2666D0"/>
</svg>
