<svg width="67" height="65" viewBox="0 0 67 65" fill="none" xmlns="http://www.w3.org/2000/svg">
<ellipse cx="33.5" cy="32.5" rx="33.5" ry="32.5" fill="#2666D0" fill-opacity="0.22"/>
<path d="M29.2568 42.9013C29.0775 42.5428 28.7652 42.5064 28.6388 42.5064C28.5124 42.5064 28.2001 42.5422 28.03 42.8813L27.5639 43.8103C27.1769 44.5843 26.043 44.4989 25.7726 43.6837L24.75 40.6272L24.1053 42.5579C23.7474 43.6274 22.7454 44.3463 21.614 44.3463H20.8611C20.3239 44.3463 19.8889 43.9126 19.8889 43.3773C19.8889 42.8419 20.3239 42.4083 20.8611 42.4083H21.614C21.9074 42.4083 22.1675 42.2218 22.2605 41.9444L23.3658 38.6354C23.5663 38.0413 24.1217 37.6416 24.75 37.6416C25.3783 37.6416 25.9336 38.0407 26.1335 38.6354L26.9769 41.1571C28.177 40.1767 30.2618 40.5697 30.9873 42.0147C31.1022 42.2436 31.3209 42.375 31.5561 42.3938V37.4206L39.3338 29.7239V26.9048H31.0694C30.2673 26.9048 29.6111 26.2508 29.6111 25.4514V17.2151H17.4583C16.6502 17.2151 16 17.8631 16 18.6686V46.7687C16 47.5741 16.6502 48.2221 17.4583 48.2221H37.8749C38.6831 48.2221 39.3332 47.5741 39.3332 46.7687V44.3463L31.5555 44.3396C30.576 44.3208 29.6973 43.7776 29.2568 42.9013ZM39.3332 24.5975C39.3332 24.2159 39.1813 23.8465 38.9079 23.574L32.9591 17.6391C32.6857 17.3666 32.315 17.2151 31.9261 17.2151H31.5555V24.9669H39.3332V24.5975ZM33.4999 38.2272V42.4083H37.692L47.5163 32.5503L43.3916 28.4394L33.4999 38.2272ZM50.5466 27.3487L48.61 25.4187C48.006 24.8167 47.0259 24.8167 46.4219 25.4187L44.7661 27.0689L48.8907 31.1798L50.5466 29.5295C51.1511 28.9275 51.1511 27.9507 50.5466 27.3487Z" fill="#2666D0"/>
</svg>
