<svg width="35" height="32" viewBox="0 0 35 32" fill="none" xmlns="http://www.w3.org/2000/svg">
<path d="M32.5 0.892578H2.49219C1.11719 0.892578 0 1.89615 0 3.12813V29.664C0 30.896 1.11719 31.8996 2.49219 31.8996H32.5C33.875 31.8996 35 30.896 35 29.664V3.12813C35 1.89615 33.875 0.892578 32.5 0.892578ZM10.5781 27.47H5.39062V12.6725H10.5859V27.47H10.5781ZM7.98438 10.6515C6.32031 10.6515 4.97656 9.4541 4.97656 7.98681C4.97656 6.51951 6.32031 5.32215 7.98438 5.32215C9.64062 5.32215 10.9922 6.51951 10.9922 7.98681C10.9922 9.46102 9.64844 10.6515 7.98438 10.6515ZM30.0234 27.47H24.8359V20.2719C24.8359 18.5555 24.7969 16.3476 22.1406 16.3476C19.4375 16.3476 19.0234 18.2163 19.0234 20.1474V27.47H13.8359V12.6725H18.8125V14.6934H18.8828C19.5781 13.5307 21.2734 12.3056 23.7969 12.3056C29.0469 12.3056 30.0234 15.3717 30.0234 19.3583V27.47Z" fill="#2666D0"/>
</svg>
