<svg width="35" height="32" viewBox="0 0 35 32" fill="none" xmlns="http://www.w3.org/2000/svg">
<path d="M31.25 0.83252H3.75C1.67891 0.83252 0 2.31989 0 4.1547V28.5173C0 30.3521 1.67891 31.8395 3.75 31.8395H31.25C33.3211 31.8395 35 30.3521 35 28.5173V4.1547C35 2.31989 33.3211 0.83252 31.25 0.83252ZM7.34375 27.4099C6.7943 27.4099 6.32367 27.0727 6.20188 26.6052L5.03016 22.1064C4.96837 21.8692 5.00264 21.6203 5.12698 21.4032C5.25132 21.1861 5.45782 21.0146 5.71039 20.9187L11.179 18.8424C11.4126 18.7538 11.6724 18.7348 11.9193 18.7883C12.1661 18.8418 12.3866 18.965 12.5476 19.1393L14.9692 21.7614C18.793 20.1721 21.8674 17.4109 23.624 14.0941L20.6641 11.9487C20.4674 11.8061 20.3284 11.6108 20.268 11.3921C20.2075 11.1734 20.229 10.9432 20.3291 10.7363L22.6728 5.89157C22.7811 5.66781 22.9746 5.48487 23.2197 5.37472C23.4647 5.26456 23.7457 5.2342 24.0134 5.28894L29.0916 6.32698C29.3498 6.37972 29.5802 6.50845 29.7452 6.69215C29.9102 6.87586 30 7.10369 30 7.33845C30 18.4326 19.848 27.4099 7.34375 27.4099Z" fill="#2666D0"/>
</svg>
