<svg width="35" height="32" viewBox="0 0 35 32" fill="none" xmlns="http://www.w3.org/2000/svg">
<path d="M13.6111 20.0658V29.5552L16.2872 31.5549C16.8644 31.9861 18.1368 31.9861 18.7141 31.5549L21.3889 29.5552V20.0658C20.1262 20.182 18.8295 20.2511 17.5 20.2511C16.1705 20.2511 14.8738 20.182 13.6111 20.0658ZM17.5 0.871338C7.8349 0.871338 0 4.77575 0 9.59222C0 14.4087 7.8349 18.3131 17.5 18.3131C27.1651 18.3131 35 14.4087 35 9.59222C35 4.77575 27.1651 0.871338 17.5 0.871338ZM17.5 5.47403C12.9427 5.47403 9.23611 7.32116 9.23611 9.59222C9.23611 9.99314 8.58229 10.319 7.77778 10.319C6.97326 10.319 6.31944 9.99314 6.31944 9.59222C6.31944 6.51993 11.3361 4.02055 17.5 4.02055C18.3045 4.02055 18.9583 4.34637 18.9583 4.74729C18.9583 5.1482 18.3045 5.47403 17.5 5.47403Z" fill="#2666D0"/>
</svg>
